<?xml version="1.0" encoding="UTF-8"?>
<svg width="59px" height="60px" viewBox="0 0 59 60" version="1.1" xmlns="http://www.w3.org/2000/svg" xmlns:xlink="http://www.w3.org/1999/xlink">
    <title>Combined Shape</title>
    <g id="Page-1" stroke="none" stroke-width="1" fill="none" fill-rule="evenodd">
        <g id="My-Web-Page-Mobile-Layout" transform="translate(-1038.000000, -119.000000)" fill="#FFFFFF">
            <path d="M1043.10482,120.362175 L1067.4995,144.756496 L1091.89518,120.362175 C1093.06676,119.190602 1094.96625,119.190602 1096.13782,120.362175 C1097.3094,121.533748 1097.3094,123.433243 1096.13782,124.604816 L1071.7425,148.999496 L1096.13782,173.395184 C1097.3094,174.566757 1097.3094,176.466252 1096.13782,177.637825 C1094.96625,178.809398 1093.06676,178.809398 1091.89518,177.637825 L1067.4995,153.242496 L1043.10482,177.637825 C1041.93324,178.809398 1040.03375,178.809398 1038.86218,177.637825 C1037.6906,176.466252 1037.6906,174.566757 1038.86218,173.395184 L1063.2565,148.999496 L1038.86218,124.604816 C1037.6906,123.433243 1037.6906,121.533748 1038.86218,120.362175 C1040.03375,119.190602 1041.93324,119.190602 1043.10482,120.362175 Z" id="Combined-Shape"></path>
        </g>
    </g>
</svg>